<svg xmlns="http://www.w3.org/2000/svg" viewBox="0 0 400 200" preserveAspectRatio="xMidYMid slice">
  <defs>
    <linearGradient id="sky5" x1="0" y1="0" x2="0" y2="1">
      <stop offset="0" stop-color="#f0fdf4"></stop>
      <stop offset="1" stop-color="#dcfce7"></stop>
    </linearGradient>
    <pattern id="grass5" x="0" y="0" width="8" height="8" patternUnits="userSpaceOnUse">
      <line x1="2" y1="8" x2="4" y2="4" stroke="#86efac" stroke-width="0.7" stroke-linecap="round"></line>
      <line x1="6" y1="8" x2="5" y2="5" stroke="#86efac" stroke-width="0.7" stroke-linecap="round"></line>
    </pattern>
  </defs>

  <!-- Background lawn -->
  <rect width="400" height="200" fill="url(#sky5)"></rect>
  <rect width="400" height="200" fill="url(#grass5)" opacity="0.6"></rect>

  <!-- Garden border -->
  <rect x="18" y="18" width="364" height="164" rx="4" fill="none" stroke="#1f2937" stroke-width="1.5" stroke-dasharray="6 3"></rect>

  <!-- Stone path (horizontal) -->
  <rect x="18" y="90" width="364" height="20" rx="0" fill="#f5f5f4" opacity="0.75"></rect>
  <rect x="32"  y="93" width="28" height="14" rx="2" fill="#e7e5e4" stroke="#d6d3d1" stroke-width="0.6"></rect>
  <rect x="68"  y="93" width="28" height="14" rx="2" fill="#e7e5e4" stroke="#d6d3d1" stroke-width="0.6"></rect>
  <rect x="104" y="93" width="28" height="14" rx="2" fill="#e7e5e4" stroke="#d6d3d1" stroke-width="0.6"></rect>
  <rect x="140" y="93" width="28" height="14" rx="2" fill="#e7e5e4" stroke="#d6d3d1" stroke-width="0.6"></rect>
  <rect x="176" y="93" width="28" height="14" rx="2" fill="#e7e5e4" stroke="#d6d3d1" stroke-width="0.6"></rect>
  <rect x="212" y="93" width="28" height="14" rx="2" fill="#e7e5e4" stroke="#d6d3d1" stroke-width="0.6"></rect>
  <rect x="248" y="93" width="28" height="14" rx="2" fill="#e7e5e4" stroke="#d6d3d1" stroke-width="0.6"></rect>
  <rect x="284" y="93" width="28" height="14" rx="2" fill="#e7e5e4" stroke="#d6d3d1" stroke-width="0.6"></rect>
  <rect x="320" y="93" width="28" height="14" rx="2" fill="#e7e5e4" stroke="#d6d3d1" stroke-width="0.6"></rect>
  <rect x="356" y="93" width="26" height="14" rx="2" fill="#e7e5e4" stroke="#d6d3d1" stroke-width="0.6"></rect>

  <!-- TOP ZONE -->

  <!-- Tree 1 (big) -->
  <circle cx="60" cy="54" r="22" fill="#16a34a" opacity="0.85"></circle>
  <circle cx="60" cy="54" r="14" fill="#15803d" opacity="0.6"></circle>
  <circle cx="54" cy="49" r="6" fill="#22c55e" opacity="0.4"></circle>
  <rect x="57" y="73" width="6" height="12" fill="#92400e"></rect>

  <!-- Tree 2 (medium) -->
  <circle cx="160" cy="58" r="16" fill="#16a34a" opacity="0.8"></circle>
  <circle cx="160" cy="58" r="9" fill="#15803d" opacity="0.5"></circle>
  <circle cx="155" cy="54" r="5" fill="#22c55e" opacity="0.35"></circle>
  <rect x="157" y="72" width="5" height="11" fill="#92400e"></rect>

  <!-- Flower bed (top centre) -->
  <ellipse cx="260" cy="56" rx="38" ry="22" fill="#fef9c3" stroke="#ca8a04" stroke-width="1" opacity="0.9"></ellipse>
  <circle cx="242" cy="52" r="5" fill="#f43f5e" opacity="0.85"></circle>
  <circle cx="256" cy="46" r="4" fill="#a855f7" opacity="0.8"></circle>
  <circle cx="270" cy="52" r="5" fill="#f43f5e" opacity="0.85"></circle>
  <circle cx="248" cy="62" r="4" fill="#f97316" opacity="0.8"></circle>
  <circle cx="263" cy="63" r="4.5" fill="#a855f7" opacity="0.7"></circle>
  <circle cx="278" cy="60" r="4" fill="#f43f5e" opacity="0.75"></circle>
  <!-- stems -->
  <line x1="242" y1="57" x2="242" y2="68" stroke="#16a34a" stroke-width="1" stroke-linecap="round"></line>
  <line x1="256" y1="50" x2="256" y2="68" stroke="#16a34a" stroke-width="1" stroke-linecap="round"></line>
  <line x1="270" y1="57" x2="270" y2="68" stroke="#16a34a" stroke-width="1" stroke-linecap="round"></line>
  <line x1="248" y1="66" x2="248" y2="68" stroke="#16a34a" stroke-width="1" stroke-linecap="round"></line>
  <line x1="278" y1="64" x2="278" y2="68" stroke="#16a34a" stroke-width="1" stroke-linecap="round"></line>
  <line x1="263" y1="67" x2="263" y2="68" stroke="#16a34a" stroke-width="1" stroke-linecap="round"></line>
  <!-- border -->
  <rect x="224" y="66" width="72" height="6" rx="2" fill="#a16207" opacity="0.35"></rect>

  <!-- Pond (top right) -->
  <ellipse cx="348" cy="56" rx="26" ry="20" fill="#bae6fd" stroke="#0284c7" stroke-width="1.2" opacity="0.9"></ellipse>
  <ellipse cx="348" cy="56" rx="14" ry="10" fill="#7dd3fc" opacity="0.5"></ellipse>
  <!-- lily pads -->
  <circle cx="342" cy="52" r="4" fill="#4ade80" opacity="0.75"></circle>
  <circle cx="354" cy="60" r="3" fill="#4ade80" opacity="0.7"></circle>
  <!-- water ripple -->
  <ellipse cx="348" cy="56" rx="8" ry="5" fill="none" stroke="#0ea5e9" stroke-width="0.7" opacity="0.5"></ellipse>

  <!-- BOTTOM ZONE -->

  <!-- Shrubs row (bottom left) -->
  <circle cx="40"  cy="148" r="12" fill="#15803d" opacity="0.8"></circle>
  <circle cx="40"  cy="148" r="7"  fill="#16a34a" opacity="0.5"></circle>
  <circle cx="68"  cy="150" r="10" fill="#15803d" opacity="0.75"></circle>
  <circle cx="92"  cy="147" r="13" fill="#15803d" opacity="0.8"></circle>
  <circle cx="92"  cy="147" r="7"  fill="#16a34a" opacity="0.45"></circle>
  <circle cx="118" cy="150" r="9"  fill="#15803d" opacity="0.7"></circle>

  <!-- Vegetable beds (bottom centre) -->
  <rect x="150" y="122" width="90" height="60" rx="3" fill="#fef3c7" stroke="#b45309" stroke-width="1" opacity="0.8"></rect>
  <!-- rows -->
  <line x1="150" y1="141" x2="240" y2="141" stroke="#b45309" stroke-width="0.7" opacity="0.4"></line>
  <line x1="150" y1="160" x2="240" y2="160" stroke="#b45309" stroke-width="0.7" opacity="0.4"></line>
  <!-- plants in rows -->
  <circle cx="165" cy="132" r="3.5" fill="#16a34a" opacity="0.8"></circle>
  <circle cx="180" cy="132" r="3.5" fill="#16a34a" opacity="0.8"></circle>
  <circle cx="195" cy="132" r="3.5" fill="#16a34a" opacity="0.8"></circle>
  <circle cx="210" cy="132" r="3.5" fill="#16a34a" opacity="0.8"></circle>
  <circle cx="225" cy="132" r="3.5" fill="#16a34a" opacity="0.8"></circle>
  <circle cx="165" cy="151" r="3.5" fill="#16a34a" opacity="0.7"></circle>
  <circle cx="180" cy="151" r="3.5" fill="#16a34a" opacity="0.7"></circle>
  <circle cx="195" cy="151" r="3.5" fill="#16a34a" opacity="0.7"></circle>
  <circle cx="210" cy="151" r="3.5" fill="#16a34a" opacity="0.7"></circle>
  <circle cx="225" cy="151" r="3.5" fill="#16a34a" opacity="0.7"></circle>
  <circle cx="165" cy="169" r="3.5" fill="#16a34a" opacity="0.65"></circle>
  <circle cx="180" cy="169" r="3.5" fill="#16a34a" opacity="0.65"></circle>
  <circle cx="195" cy="169" r="3.5" fill="#16a34a" opacity="0.65"></circle>
  <circle cx="210" cy="169" r="3.5" fill="#16a34a" opacity="0.65"></circle>
  <circle cx="225" cy="169" r="3.5" fill="#16a34a" opacity="0.65"></circle>

  <!-- AI badge (bottom right) -->
  <rect x="268" y="124" width="96" height="54" rx="5" fill="#eff6ff" stroke="#2563eb" stroke-width="1.2" opacity="0.95"></rect>
  <text x="316" y="143" font-family="ui-monospace, monospace" font-size="7" fill="#1d4ed8" text-anchor="middle" font-weight="bold">AI-generated</text>
  <text x="316" y="155" font-family="ui-monospace, monospace" font-size="6.5" fill="#6b7280" text-anchor="middle">layout plan</text>
  <!-- small ai icon: brain outline -->
  <ellipse cx="316" cy="168" rx="7" ry="5" fill="none" stroke="#2563eb" stroke-width="1.1"></ellipse>
  <line x1="309" y1="168" x2="313" y2="168" stroke="#2563eb" stroke-width="0.9"></line>
  <line x1="319" y1="168" x2="323" y2="168" stroke="#2563eb" stroke-width="0.9"></line>
  <line x1="316" y1="163" x2="316" y2="160" stroke="#2563eb" stroke-width="0.9"></line>
</svg>
